<svg width="339" height="413" viewBox="0 0 339 413" fill="none" xmlns="http://www.w3.org/2000/svg">
<circle cx="331.877" cy="6.31485" r="6.31479" transform="rotate(-180 331.877 6.31485)" fill="#E6E6E6"/>
<circle cx="169.096" cy="6.31485" r="6.31479" transform="rotate(-180 169.096 6.31485)" fill="#E6E6E6"/>
<circle cx="6.31482" cy="47.0102" r="6.31479" transform="rotate(-180 6.31482 47.0102)" fill="#E6E6E6"/>
<circle cx="6.31482" cy="6.31485" r="6.31479" transform="rotate(-180 6.31482 6.31485)" fill="#E6E6E6"/>
<circle cx="250.487" cy="6.31485" r="6.31479" transform="rotate(-180 250.487 6.31485)" fill="#E6E6E6"/>
<circle cx="87.7055" cy="6.31485" r="6.31479" transform="rotate(-180 87.7055 6.31485)" fill="#E6E6E6"/>
<circle cx="291.182" cy="6.31485" r="6.31479" transform="rotate(-180 291.182 6.31485)" fill="#E6E6E6"/>
<circle cx="128.401" cy="6.31485" r="6.31479" transform="rotate(-180 128.401 6.31485)" fill="#E6E6E6"/>
<circle cx="209.791" cy="6.31485" r="6.31479" transform="rotate(-180 209.791 6.31485)" fill="#E6E6E6"/>
<circle cx="47.0102" cy="6.31485" r="6.31479" transform="rotate(-180 47.0102 6.31485)" fill="#E6E6E6"/>
<circle cx="7.52231" cy="81.107" r="6.31479" transform="rotate(90 7.52231 81.107)" fill="#E6E6E6"/>
<circle cx="7.52229" cy="243.888" r="6.31479" transform="rotate(90 7.52229 243.888)" fill="#E6E6E6"/>
<circle cx="7.52228" cy="406.669" r="6.31479" transform="rotate(90 7.52228 406.669)" fill="#E6E6E6"/>
<circle cx="7.5223" cy="162.498" r="6.31479" transform="rotate(90 7.5223 162.498)" fill="#E6E6E6"/>
<circle cx="7.52228" cy="325.279" r="6.31479" transform="rotate(90 7.52228 325.279)" fill="#E6E6E6"/>
<circle cx="7.5223" cy="121.802" r="6.31479" transform="rotate(90 7.5223 121.802)" fill="#E6E6E6"/>
<circle cx="7.52228" cy="284.584" r="6.31479" transform="rotate(90 7.52228 284.584)" fill="#E6E6E6"/>
<circle cx="7.52229" cy="203.193" r="6.31479" transform="rotate(90 7.52229 203.193)" fill="#E6E6E6"/>
<circle cx="7.52228" cy="365.974" r="6.31479" transform="rotate(90 7.52228 365.974)" fill="#E6E6E6"/>
</svg>
