<?xml version="1.0" standalone="no"?>
<!DOCTYPE svg PUBLIC "-//W3C//DTD SVG 20010904//EN"
 "http://www.w3.org/TR/2001/REC-SVG-20010904/DTD/svg10.dtd">
<svg version="1.0" xmlns="http://www.w3.org/2000/svg"
 width="118.000000pt" height="153.000000pt" viewBox="0 0 118.000000 153.000000"
 preserveAspectRatio="xMidYMid meet">

<g transform="translate(0.000000,153.000000) scale(0.100000,-0.100000)"
fill="#000000" stroke="none">
<path d="M220 1273 c0 -9 -3 -14 -6 -10 -4 3 -13 0 -20 -8 -12 -11 -14 -105
-14 -534 l0 -521 425 0 425 0 0 545 0 545 -405 0 c-371 0 -405 -1 -405 -17z
m780 -528 l0 -505 -390 0 -390 0 0 505 0 505 390 0 390 0 0 -505z"/>
<path d="M770 1108 c-26 -56 -123 -425 -116 -443 2 -7 -11 -73 -30 -145 -19
-72 -34 -139 -32 -148 2 -9 18 -20 36 -24 47 -13 74 8 112 86 28 56 31 72 28
130 l-3 66 32 -6 c30 -6 32 -4 42 33 24 90 33 182 29 283 -4 87 -9 116 -29
155 -13 27 -30 51 -36 53 -7 2 -22 -16 -33 -40z m72 -117 c5 -31 7 -89 3 -131
-6 -71 -29 -197 -37 -205 -3 -3 -117 25 -126 31 -5 3 96 374 109 404 l12 25
14 -34 c8 -19 19 -59 25 -90z"/>
<path d="M356 1063 c-3 -3 -6 -25 -6 -47 1 -64 48 -368 58 -375 5 -3 15 -44
21 -91 22 -159 19 -150 58 -150 30 0 36 4 50 37 20 48 13 127 -15 181 l-22 42
25 0 c21 0 25 5 25 29 0 40 -45 193 -75 250 -39 77 -101 142 -119 124z m68
-81 c14 -20 34 -58 46 -84 27 -63 62 -200 53 -209 -5 -3 -29 -9 -55 -12 -47
-6 -47 -6 -53 26 -8 48 -45 307 -45 317 0 18 29 -2 54 -38z"/>
</g>
</svg>
